<?xml version="1.0" encoding="utf-8"?>
<!-- Generator: Adobe Illustrator 18.0.0, SVG Export Plug-In . SVG Version: 6.00 Build 0)  -->
<!DOCTYPE svg PUBLIC "-//W3C//DTD SVG 1.1//EN" "http://www.w3.org/Graphics/SVG/1.1/DTD/svg11.dtd">
<svg version="1.1" id="Layer_1" xmlns="http://www.w3.org/2000/svg" xmlns:xlink="http://www.w3.org/1999/xlink" x="0px" y="0px"
	 viewBox="22.6 22.5 14.9 14.9" enable-background="new 22.6 22.5 14.9 14.9" xml:space="preserve">
<g>
	<rect x="25.6" y="36.1" fill="#1C75BC" width="8.8" height="1.4"/>
	<rect x="25.6" y="22.5" fill="#1C75BC" width="8.8" height="1.4"/>
	<rect x="22.6" y="25.6" fill="#1C75BC" width="1.4" height="8.8"/>
	<path fill="#1C75BC" d="M30,25.4c-1.3,0-2.4,0.4-3.3,1.3c-0.9,0.9-1.4,2-1.4,3.2c0,1.4,0.5,2.5,1.5,3.4c0.9,0.8,1.9,1.2,3.1,1.2
		c1.3,0,2.4-0.4,3.3-1.3c0.9-0.9,1.4-2,1.4-3.2c0-1.2-0.5-2.3-1.3-3.2C32.4,25.9,31.3,25.4,30,25.4z M32.1,32.2
		c-0.6,0.6-1.3,0.9-2.2,0.9c-0.8,0-1.5-0.3-2.1-0.9C27.3,31.6,27,30.9,27,30c0-0.9,0.3-1.6,0.9-2.2c0.6-0.6,1.3-0.9,2.1-0.9
		c0.8,0,1.6,0.3,2.1,0.9c0.6,0.6,0.9,1.3,0.9,2.2C33,30.9,32.7,31.6,32.1,32.2z"/>
	<rect x="36.1" y="25.6" fill="#1C75BC" width="1.4" height="8.8"/>
</g>
</svg>
