<?xml version="1.0" encoding="utf-8"?>
<!-- Generator: Adobe Illustrator 22.1.0, SVG Export Plug-In . SVG Version: 6.00 Build 0)  -->
<svg version="1.1" id="Layer_1" xmlns="http://www.w3.org/2000/svg" xmlns:xlink="http://www.w3.org/1999/xlink" x="0px" y="0px"
	 viewBox="0 0 32 32" style="enable-background:new 0 0 32 32;" xml:space="preserve">
<style type="text/css">
	.st0{fill:#767676;}
	.st1{fill:#FFFFFF;}
</style>
<path class="st0" d="M0,0h32v32H0V0z"/>
<path class="st1" d="M24.3,8.9c0.7,0,1.2,0.5,1.2,1.2c0,0,0,0,0,0v11.9c0,0.7-0.5,1.2-1.2,1.2h0H7.7c-0.7,0-1.2-0.5-1.2-1.2l0,0
	V10.1c0-0.7,0.5-1.2,1.2-1.2H24.3z M23.1,11.3H8.9v0.8l7.1,4.2l7.1-4.2L23.1,11.3L23.1,11.3z M8.9,20.8h14.2v-6.6L16,18.4l-7.1-4.2
	C8.9,14.2,8.9,20.8,8.9,20.8z"/>
</svg>
