<?xml version="1.0" encoding="utf-8"?>
<!-- Generator: Adobe Illustrator 22.1.0, SVG Export Plug-In . SVG Version: 6.00 Build 0)  -->
<svg version="1.1" id="Layer_1" xmlns="http://www.w3.org/2000/svg" xmlns:xlink="http://www.w3.org/1999/xlink" x="0px" y="0px"
	 viewBox="0 0 32 32" style="enable-background:new 0 0 32 32;" xml:space="preserve">
<style type="text/css">
	.st0{fill:#E75558;}
	.st1{fill:#FFFFFF;}
</style>
<title>Google+</title>
<path class="st0" d="M0,0h32v32H0V0z"/>
<path class="st1" d="M18.1,7.6l-1.2,0.8h-1.6c0.6,0.2,1,0.6,1.3,1.2c0.3,0.6,0.5,1.2,0.5,1.8c0,0.6-0.2,1.1-0.5,1.6
	c-0.3,0.5-0.6,0.9-1.1,1.2c-0.3,0.2-0.6,0.5-0.8,0.8c-0.1,0.2-0.2,0.5-0.2,0.7c0.1,0.3,0.3,0.7,0.5,0.9c0.3,0.3,0.6,0.5,0.9,0.8
	c0.6,0.4,1.1,0.9,1.4,1.5c0.3,0.6,0.4,1.2,0.4,1.9c0,0.5-0.1,1-0.3,1.4c-0.2,0.5-0.6,0.9-1,1.2c-0.5,0.4-1,0.7-1.6,0.9
	c-0.7,0.2-1.5,0.3-2.2,0.3c-0.7,0-1.4-0.1-2.1-0.2c-0.6-0.1-1.2-0.3-1.7-0.6c-0.5-0.2-0.9-0.6-1.2-1c-0.3-0.4-0.4-0.8-0.4-1.3
	c0-0.5,0.1-1,0.4-1.4c0.3-0.5,0.6-0.9,1.1-1.2c0.5-0.4,1.1-0.6,1.6-0.8c0.6-0.2,1.3-0.3,2-0.3h0.9c-0.2-0.2-0.4-0.4-0.5-0.6
	c-0.2-0.4-0.3-0.9-0.1-1.3c0.1-0.2,0.1-0.3,0.2-0.5h-0.5c-0.6,0-1.1-0.1-1.6-0.3c-0.5-0.2-0.9-0.5-1.3-0.8c-0.4-0.3-0.6-0.8-0.8-1.2
	c-0.2-0.5-0.3-1-0.3-1.5c0-0.5,0.1-1,0.4-1.4c0.3-0.5,0.6-0.9,1-1.2c0.4-0.4,0.9-0.6,1.5-0.8c0.5-0.2,1.1-0.3,1.7-0.3L18.1,7.6
	L18.1,7.6z M16.2,20.4c-0.1-0.4-0.3-0.8-0.7-1l-1.4-1l-0.6-0.1c-0.2,0-0.5-0.1-0.7-0.1c-0.9,0-1.9,0.3-2.7,0.8
	c-0.7,0.4-1.1,1.1-1.1,1.9c0,0.8,0.4,1.5,1,2c0.7,0.6,1.6,0.9,2.5,0.8c1.1,0.1,2.1-0.2,3-0.8c0.6-0.5,0.9-1.2,0.9-1.9
	c0-0.1,0-0.2,0-0.3C16.4,20.5,16.3,20.4,16.2,20.4z M13,14.6c0.7,0,1.3-0.3,1.6-0.9c0.4-0.7,0.5-1.5,0.4-2.2c-0.1-0.8-0.4-1.6-1-2.3
	c-0.4-0.6-1.1-0.9-1.8-1c-0.7,0-1.3,0.3-1.6,0.9c-0.4,0.7-0.6,1.5-0.4,2.2c0.1,0.9,0.4,1.7,1,2.3C11.6,14.2,12.3,14.6,13,14.6z
	 M27.2,11.3v1.2h-3.8v3.8h-1.2v-3.8h-3.8v-1.2h3.8V7.6h1.2v3.8C23.4,11.3,27.2,11.3,27.2,11.3z"/>
</svg>
