<?xml version="1.0" encoding="utf-8"?>
<!-- Generator: Adobe Illustrator 22.1.0, SVG Export Plug-In . SVG Version: 6.00 Build 0)  -->
<svg version="1.1" id="Layer_1" xmlns="http://www.w3.org/2000/svg" xmlns:xlink="http://www.w3.org/1999/xlink" x="0px" y="0px"
	 viewBox="0 0 32 32" style="enable-background:new 0 0 32 32;" xml:space="preserve">
<style type="text/css">
	.st0{fill:#9D1620;}
	.st1{fill:#FFFFFF;}
</style>
<title>Mendeley</title>
<path class="st0" d="M0,0h32v32H0V0z"/>
<path class="st1" d="M25.9,19.1C26,19.4,26,19.7,26,20c0,0.3-0.1,0.5-0.2,0.8c-0.1,0.3-0.2,0.5-0.4,0.7c-0.2,0.2-0.4,0.3-0.6,0.4
	c-0.5,0.2-1.2,0.2-1.6-0.2c-0.5-0.3-0.8-0.9-0.9-1.5c0-0.2,0-0.4,0-0.6c0-0.2,0.1-0.4,0.1-0.6c0.1-0.1,0.1-0.2,0.1-0.4
	c0-0.1,0.1-0.3,0.1-0.4c0-0.2,0-0.5-0.1-0.7c-0.1-0.2-0.2-0.4-0.4-0.5c-0.1-0.1-0.2-0.2-0.4-0.3c-0.1-0.1-0.3-0.1-0.4-0.2
	c-0.8-0.3-1.7-0.3-2.4,0l-0.3,0.2c-0.1,0.1-0.2,0.1-0.3,0.2c-0.2,0.2-0.4,0.4-0.5,0.7c-0.1,0.3-0.1,0.6,0,0.8c0,0.2,0.1,0.3,0.2,0.4
	c0.2,0.5,0.3,1,0.2,1.5c-0.1,0.5-0.4,0.9-0.8,1.2c-0.2,0.1-0.4,0.2-0.6,0.3c-0.2,0.1-0.4,0.1-0.6,0.1h-0.5c-0.2,0-0.3-0.1-0.5-0.1
	c-0.3-0.1-0.6-0.4-0.8-0.6c-0.2-0.3-0.4-0.6-0.4-1c0-0.2,0-0.5,0-0.7c0-0.2,0.1-0.5,0.2-0.7c0.1-0.2,0.2-0.4,0.2-0.6
	c0-0.2,0-0.4,0-0.6c0-0.1-0.1-0.3-0.1-0.4c-0.1-0.1-0.2-0.2-0.3-0.3c-0.1-0.1-0.3-0.2-0.4-0.3c-0.1-0.1-0.3-0.2-0.5-0.2
	c-0.4-0.1-0.8-0.2-1.3-0.2c-0.4,0-0.9,0.1-1.3,0.3c-0.1,0-0.2,0.1-0.2,0.1L10,16.9c-0.2,0.2-0.4,0.4-0.5,0.7c-0.1,0.3-0.1,0.6,0,0.9
	c0,0.1,0,0.2,0.1,0.2c0,0.1,0.1,0.2,0.1,0.2c0.1,0.3,0.2,0.6,0.2,0.9c0,0.3-0.1,0.6-0.2,0.9c-0.2,0.4-0.4,0.6-0.7,0.9
	c-0.3,0.2-0.6,0.3-1,0.3c-0.2,0-0.5-0.1-0.7-0.2c-0.2-0.1-0.4-0.3-0.6-0.5c-0.1-0.2-0.3-0.4-0.3-0.6c-0.1-0.2-0.2-0.4-0.2-0.6
	c0-0.2,0-0.4,0-0.5c0-0.2,0-0.4,0.1-0.5c0-0.1,0.1-0.2,0.1-0.4c0.1-0.1,0.1-0.2,0.2-0.3l0.3-0.3C6.9,18.1,7,18,7.1,17.9
	c0.1-0.1,0.3-0.1,0.4-0.1c0.1,0,0.3,0,0.4,0c0.1,0,0.2,0,0.3,0c0.1,0,0.2-0.1,0.3-0.1c0.1-0.1,0.3-0.2,0.4-0.3
	c0.1-0.1,0.2-0.3,0.2-0.4c0.1-0.1,0.1-0.3,0.1-0.4c0-0.1,0-0.3,0-0.4v-0.2c0-0.2,0-0.5-0.1-0.7c0-0.2-0.1-0.5-0.1-0.7
	c0,0,0-0.1,0-0.1s0-0.1,0-0.1C9.1,14,9,13.7,9,13.4c0-0.2,0-0.4,0-0.6c0-0.2,0.1-0.4,0.1-0.6c0.2-0.5,0.4-1,0.8-1.4
	c0.4-0.4,0.8-0.6,1.3-0.7c0.6-0.2,1.2-0.1,1.7,0.1c0.6,0.2,1,0.6,1.4,1.1l0.1,0.2l0.1,0.2l0.3,0.3l0.3,0.3c0.1,0.1,0.2,0.2,0.3,0.2
	c0.1,0.1,0.2,0.1,0.3,0.1c0.2,0,0.3,0,0.5,0c0.2,0,0.3-0.1,0.5-0.2l0.2-0.2l0.2-0.2l0.3-0.3l0.3-0.3v-0.1c0.2-0.4,0.5-0.7,0.9-0.9
	c1-0.7,2.3-0.6,3.2,0.1c0.7,0.5,1.2,1.3,1.2,2.1c0,0.3,0,0.6,0,0.9c0,0.3-0.1,0.6-0.2,0.9c0,0.1,0,0.2-0.1,0.3v0.3
	c0,0.2-0.1,0.4-0.1,0.7c0,0.2,0,0.4,0,0.7c0,0.1,0,0.2,0,0.2v0.2c0,0.2,0.2,0.5,0.3,0.7c0.2,0.2,0.4,0.3,0.6,0.3H24
	c0.4,0,0.7,0.1,1.1,0.3C25.5,18.2,25.8,18.7,25.9,19.1L25.9,19.1z M16,17.7c0.6,0,1.1-0.2,1.4-0.7c0.3-0.4,0.5-0.9,0.6-1.4
	c0-0.6-0.2-1.1-0.6-1.5c-0.4-0.4-0.9-0.6-1.4-0.6c-0.5,0-1.1,0.2-1.4,0.6C14.2,14.5,14,15,14,15.6c0,0.5,0.2,1,0.6,1.4
	C14.9,17.4,15.5,17.7,16,17.7z"/>
</svg>
