<?xml version="1.0" encoding="utf-8"?>
<!-- Generator: Adobe Illustrator 22.1.0, SVG Export Plug-In . SVG Version: 6.00 Build 0)  -->
<svg version="1.1" id="Layer_1" xmlns="http://www.w3.org/2000/svg" xmlns:xlink="http://www.w3.org/1999/xlink" x="0px" y="0px"
	 viewBox="0 0 32 32" style="enable-background:new 0 0 32 32;" xml:space="preserve">
<style type="text/css">
	.st0{fill:#7DCEEF;}
	.st1{fill:#FFFFFF;}
</style>
<title>Twitter</title>
<path class="st0" d="M0,0h32v32H0V0z"/>
<path class="st1" d="M27,9.8c-0.5,0.8-1.2,1.5-2,2.1c0,0.1,0,0.2,0,0.3s0,0.2,0,0.2c0,1.4-0.3,2.8-0.8,4.1c-1,2.9-3.2,5.2-5.9,6.5
	c-1.6,0.7-3.3,1.1-5,1.1c-0.6,0-1.1,0-1.7-0.1c-0.5-0.1-1.1-0.2-1.6-0.3c-0.5-0.2-1-0.4-1.5-0.6c-0.5-0.2-1-0.5-1.5-0.8h1
	c0.9,0,1.9-0.2,2.7-0.5c0.8-0.3,1.6-0.7,2.3-1.3c-1.7,0-3.3-1.2-3.8-2.8l0.4,0.1H10c0.2,0,0.4,0,0.6,0c0.2,0,0.4-0.1,0.5-0.1
	c-0.9-0.2-1.7-0.7-2.3-1.4c-0.6-0.7-1-1.7-0.9-2.6c0.3,0.1,0.6,0.3,0.9,0.4c0.3,0.1,0.7,0.1,1,0.2c-0.6-0.4-1-0.9-1.3-1.4
	C7.9,11.8,7.7,10.6,8,9.6c0.1-0.3,0.2-0.7,0.4-1c0.5,0.6,1.1,1.2,1.7,1.7c0.6,0.5,1.3,0.9,2,1.3c0.7,0.4,1.5,0.7,2.3,0.9
	c0.8,0.2,1.6,0.3,2.5,0.4c0-0.2,0-0.3-0.1-0.5c0-0.2,0-0.3,0-0.5c0-0.5,0.1-1.1,0.3-1.6c0.4-1,1.2-1.7,2.1-2.2c1-0.4,2.2-0.4,3.3,0
	c0.5,0.2,1,0.5,1.3,0.9c0.5-0.1,0.9-0.2,1.4-0.4c0.4-0.2,0.9-0.4,1.3-0.6c-0.2,0.5-0.4,0.9-0.7,1.3c-0.3,0.4-0.7,0.7-1.1,1
	c0.4,0,0.8-0.1,1.2-0.2C26.3,10.1,26.6,10,27,9.8L27,9.8z"/>
</svg>
