<?xml version="1.0" encoding="iso-8859-1"?>
<!-- Generator: Adobe Illustrator 19.1.0, SVG Export Plug-In . SVG Version: 6.00 Build 0)  -->
<svg version="1.1" id="Layer_1" xmlns="http://www.w3.org/2000/svg" xmlns:xlink="http://www.w3.org/1999/xlink" x="0px" y="0px"
	 viewBox="0 0 300 75.135" style="enable-background:new 0 0 300 75.135;" xml:space="preserve">
<g>
	<path style="fill:#1D1D1B;" d="M153.824,20.676c0,1.338-0.038,3.058-0.688,4.663c-0.421,0.879-0.994,1.758-1.95,2.484
		c-1.375,1.032-3.019,1.452-4.51,1.452c-2.866,0-5.809-1.682-6.802-4.968c-0.115-0.268-0.153-0.612-0.229-0.917h1.261
		c0.038,0.153,0.076,0.267,0.114,0.421c1.147,3.975,4.548,4.433,5.733,4.433c2.943-0.077,4.739-1.758,5.312-3.325
		c0.497-1.261,0.612-2.561,0.612-4.242V0.497h1.147V20.676z"/>
	<path style="fill:#1D1D1B;" d="M156.039,18.612c0-6,4.586-10.586,10.663-10.586c6.076,0,10.663,4.586,10.663,10.624
		c0,6.076-4.586,10.624-10.663,10.624c-6.076,0-10.663-4.548-10.663-10.624V18.612z M157.109,18.688
		c0,5.465,4.128,9.593,9.593,9.593s9.593-4.127,9.593-9.631c0-5.504-4.128-9.631-9.593-9.631s-9.593,4.127-9.593,9.631V18.688z"/>
	<path style="fill:#1D1D1B;" d="M198.23,28.778h-1.07c0-1.376,0-2.713,0.038-4.395c-1.376,3.516-4.892,4.968-8.484,4.892
		c-6.038-0.153-9.057-3.784-9.057-9.86V8.522h1.07v10.892c0,5.465,2.675,8.943,8.217,8.866c4.815-0.076,8.217-2.79,8.217-8.102
		V8.522h1.07V28.778z"/>
	<path style="fill:#1D1D1B;" d="M201.937,8.522h1.07v3.86c1.911-4.013,5.389-4.242,7.147-4.357v1.032h-0.305
		c-4.319,0-6.842,3.134-6.842,8.637v11.083h-1.07V8.522z"/>
	<path style="fill:#1D1D1B;" d="M212.026,8.522h1.07c0,1.376,0,2.713-0.038,4.395c1.376-3.516,4.892-4.969,8.484-4.892
		c6.038,0.153,9.057,3.783,9.057,9.86v10.892h-1.07V17.886c0-5.465-2.675-8.943-8.217-8.867c-4.815,0.076-8.217,2.79-8.217,8.102
		v11.656h-1.07V8.522z"/>
	<path style="fill:#1D1D1B;" d="M254.064,28.778h-1.07v-5.236c-1.835,3.631-5.198,5.733-9.478,5.733
		c-6.65,0-10.663-5.159-10.663-10.624c0-5.58,4.127-10.624,10.663-10.624c4.892,0,8.408,3.019,9.478,5.847v-5.35h1.07V28.778z
		 M233.923,18.688c0.039,4.548,3.172,9.593,9.708,9.593c4.318,0,7.605-2.637,8.905-6.306c0.42-1.108,0.612-2.331,0.574-3.554
		c0-1.223-0.229-2.446-0.688-3.516c-1.376-3.516-4.777-5.885-8.905-5.885c-5.274,0-9.593,3.936-9.593,9.631V18.688z"/>
	<path style="fill:#1D1D1B;" d="M257.732,0.497h1.07v28.281h-1.07V0.497z"/>
	<path style="fill:#1D1D1B;" d="M269.388,18.612c0-6,4.586-10.586,10.663-10.586c6.076,0,10.663,4.586,10.663,10.624
		c0,6.076-4.586,10.624-10.663,10.624c-6.076,0-10.663-4.548-10.663-10.624V18.612z M270.458,18.688
		c0,5.465,4.128,9.593,9.593,9.593c5.465,0,9.593-4.127,9.593-9.631c0-5.504-4.128-9.631-9.593-9.631
		c-5.465,0-9.593,4.127-9.593,9.631V18.688z"/>
	<path style="fill:#1D1D1B;" d="M293.656,9.516h-3.325V8.522h3.325V6.497c0-6.459,5.274-6.459,6.344-6.497v1.032
		c-1.529,0.115-5.274,0.115-5.274,5.771v1.72H300v0.994h-5.274v19.262h-1.07V9.516z"/>
</g>
<g>
	<path style="fill:#1D1D1B;" d="M27.02,60.842c-1.911,3.248-6.421,6.65-12.344,6.65C6.573,67.492,0,61.339,0,52.854
		s6.573-14.638,14.676-14.638c6.038,0.039,10.319,3.593,12.382,6.803h-1.337c-1.07-1.491-4.777-5.732-11.045-5.771
		c-7.491,0-13.529,5.771-13.529,13.606S7.185,66.46,14.676,66.46c6.612,0,10.243-4.51,11.045-5.618H27.02z"/>
	<path style="fill:#1D1D1B;" d="M27.745,56.829c0-6,4.586-10.586,10.663-10.586s10.663,4.586,10.663,10.624
		c0,6.076-4.586,10.625-10.663,10.625s-10.663-4.548-10.663-10.625V56.829z M28.815,56.905c0,5.465,4.128,9.593,9.593,9.593
		s9.593-4.127,9.593-9.631s-4.128-9.631-9.593-9.631s-9.593,4.127-9.593,9.631V56.905z"/>
	<path style="fill:#1D1D1B;" d="M51.401,46.739h1.07v3.784c1.95-3.898,5.504-4.28,6.803-4.28c2.446,0,4.586,0.84,5.962,2.484
		c0.573,0.612,1.375,2.369,1.375,2.369c0.229-0.573,0.612-1.452,1.453-2.369c1.414-1.567,3.592-2.484,5.885-2.484
		c2.446,0,4.281,0.764,5.542,2.025c1.682,1.644,2.331,4.281,2.331,7.376v11.35h-1.07v-11.35c0-2.79-0.535-5.159-2.064-6.688
		c-1.07-1.109-2.637-1.72-4.739-1.72c-1.796,0-3.975,0.688-5.235,2.331c-1.299,1.682-1.567,2.905-1.567,6.077v11.35h-1.07v-11.35
		c0.077-3.172-0.42-4.624-1.452-6c-1.185-1.529-2.981-2.331-5.351-2.408c-1.987-0.076-3.936,0.917-4.93,2.216
		c-1.109,1.261-1.873,3.058-1.873,6v11.542h-1.07V46.739z"/>
	<path style="fill:#1D1D1B;" d="M85.413,46.739h1.07v5.236c1.835-3.631,5.198-5.732,9.478-5.732c6.65,0,10.663,5.159,10.663,10.624
		c0,5.58-4.127,10.625-10.663,10.625c-4.892,0-8.408-3.02-9.478-5.848v5.351v8.14h-1.07V46.739z M105.554,56.829
		c-0.039-4.548-3.172-9.593-9.708-9.593c-2.713,0-5.083,1.071-6.803,2.79c-1.682,1.758-2.675,4.165-2.675,6.879
		s1.032,5.121,2.751,6.842c1.72,1.72,4.127,2.751,6.841,2.751c5.274,0,9.593-3.937,9.593-9.631V56.829z"/>
	<path style="fill:#1D1D1B;" d="M109.031,38.714h1.07v28.281h-1.07V38.714z"/>
	<path style="fill:#1D1D1B;" d="M113.082,56.982c0.076,6.611,5.618,9.554,9.592,9.516c3.745,0,7.032-1.911,8.637-5.351h1.185
		c-0.918,2.14-2.37,3.745-4.089,4.816c-1.72,1.032-3.707,1.529-5.771,1.529c-7.643,0-10.663-6.077-10.663-10.587
		c0-6.076,4.662-10.662,10.701-10.662c2.713,0,5.313,0.955,7.262,2.713c2.216,1.987,3.516,5.045,3.325,8.025H113.082z
		 M132.191,55.988c-0.229-4.892-4.777-8.943-9.516-8.752c-5.007,0-9.249,3.631-9.554,8.752H132.191z"/>
	<path style="fill:#1D1D1B;" d="M139.338,56.829l-6.765-10.09h1.376l6.038,9.058l6.076-9.058h1.299l-6.726,10.09l6.726,10.166
		h-1.299l-6.076-9.134l-6.038,9.134h-1.376L139.338,56.829z"/>
	<path style="fill:#1D1D1B;" d="M177.898,65.466V38.714h1.147v28.281h-1.452l-19.72-27.135v27.135h-1.147V38.714h1.72
		L177.898,65.466z"/>
	<path style="fill:#1D1D1B;" d="M182.025,56.982c0.076,6.611,5.618,9.554,9.592,9.516c3.745,0,7.032-1.911,8.637-5.351h1.185
		c-0.917,2.14-2.37,3.745-4.089,4.816c-1.72,1.032-3.707,1.529-5.771,1.529c-7.643,0-10.663-6.077-10.663-10.587
		c0-6.076,4.662-10.662,10.701-10.662c2.713,0,5.313,0.955,7.262,2.713c2.216,1.987,3.516,5.045,3.325,8.025H182.025z
		 M201.133,55.988c-0.229-4.892-4.777-8.943-9.516-8.752c-5.007,0-9.249,3.631-9.554,8.752H201.133z"/>
	<path style="fill:#1D1D1B;" d="M205.872,47.733h-4.472v-0.994h4.472v-8.025h1.07v8.025h5.198v0.994h-5.198v19.262h-1.07V47.733z"/>
	<path style="fill:#1D1D1B;" d="M210.572,46.739h1.185l6.88,18.803l5.618-16.051h0.841l5.656,16.051l6.841-18.803h1.185
		l-7.452,20.256h-1.223l-5.465-15.593l-5.389,15.593h-1.223L210.572,46.739z"/>
	<path style="fill:#1D1D1B;" d="M238.47,56.829c0-6,4.586-10.586,10.663-10.586c6.076,0,10.663,4.586,10.663,10.624
		c0,6.076-4.586,10.625-10.663,10.625c-6.076,0-10.663-4.548-10.663-10.625V56.829z M239.54,56.905c0,5.465,4.128,9.593,9.593,9.593
		c5.465,0,9.593-4.127,9.593-9.631s-4.128-9.631-9.593-9.631c-5.465,0-9.593,4.127-9.593,9.631V56.905z"/>
	<path style="fill:#1D1D1B;" d="M262.126,46.739h1.07v3.86c1.911-4.013,5.389-4.242,7.147-4.356v1.032h-0.305
		c-4.319,0-6.842,3.134-6.842,8.637v11.083h-1.07V46.739z"/>
	<path style="fill:#1D1D1B;" d="M271.413,38.714h1.07v16.892l10.892-8.867h1.452l-10.816,8.905l11.657,11.35h-1.452l-11.733-11.312
		v11.312h-1.07V38.714z"/>
	<path style="fill:#1D1D1B;" d="M296.368,51.517c0-3.058-2.102-4.319-4.28-4.281c-2.713,0-4.548,1.835-4.434,4.242
		c0.115,2.446,1.567,3.363,4.434,4.166c2.675,0.726,5.694,1.452,5.924,5.77c0.191,3.325-2.446,6.077-5.924,6.077
		c-3.363,0-6.459-2.408-6.23-6.115h1.071c0,3.248,2.216,5.121,5.159,5.121c3.019,0,4.93-2.293,4.853-4.93
		c-0.076-2.79-1.605-4.127-4.892-4.854c-3.057-0.879-5.35-1.758-5.465-5.236c0-3.363,2.484-5.235,5.504-5.235
		c2.943,0.038,5.35,1.796,5.35,5.274H296.368z"/>
</g>
</svg>
